# xmcd CD Database Entry
#
# Track frame offsets:
# 150
# 24817
# 44555
# 70450
# 93985
# 120315
# 147502
# 181840
# 201340
# 220202
# 247165
# 271760
# 308535
#
# Disc length: 4155 seconds
#
# Revision: 4
# Processed by: cddbd v1.4PL0 Copyright (c) Steve Scherf et al.
# Submitted via: tcd 2.0b
#
DISCID=b910390d
DTITLE=Assorted - Revival Generation
DYEAR=1900
DGENRE=
TTITLE0=Did You Feel The Mountains Tremble?-Deliriou5?
TTITLE1=Believer-Matt Redman
TTITLE2=Here I Am [I Will Always Love Your Name]-Paul Oakley
TTITLE3=There Is A Louder Shout To Come-Matt Redman
TTITLE4=Once Again-Stuart Townend Dave Fellingham and The Stoneleigh 
TTITLE4=Band
TTITLE5=We Want To See Jesus Lifted High-Noel Richards
TTITLE6=I'm Not Ashamed-Deliriou5?
TTITLE7=Oh Our Lord And King-Alan Rose and the Paul Oakley Band
TTITLE8=There's A Place-Stuart Townend Dave Fellingham and The Stonel
TTITLE8=eigh Band
TTITLE9=Shout To The Lord-Kevin Prosch
TTITLE10=Champion-Noel Richards
TTITLE11=Can A Nation Be Changed?-Matt Redman
TTITLE12=Extra Track
EXTD=
EXTT0=
EXTT1=
EXTT2=
EXTT3=
EXTT4=
EXTT5=
EXTT6=
EXTT7=
EXTT8=
EXTT9=
EXTT10=
EXTT11=
EXTT12=
PLAYORDER=
